<svg xmlns="http://www.w3.org/2000/svg" xmlns:xlink="http://www.w3.org/1999/xlink" version="1.1" width="1000" height="1000" viewBox="0 0 1000 1000" xml:space="preserve">
<desc>Created with Fabric.js 3.5.0</desc>
<defs>
</defs>
<rect x="0" y="0" width="100%" height="100%" fill="rgba(255,255,255,0)"/>
<g transform="matrix(3.7361 0 0 3.497 484.3338 551.8253)" id="30472">
<g style="" vector-effect="non-scaling-stroke">
		<g transform="matrix(1 0 0 1 1.8269 -5)">
<path style="stroke: none; stroke-width: 1; stroke-dasharray: none; stroke-linecap: butt; stroke-dashoffset: 0; stroke-linejoin: miter; stroke-miterlimit: 4; is-custom-font: none; font-file-url: none; fill: rgb(124,91,211); fill-rule: nonzero; opacity: 1;" transform=" translate(-50.8269, -70)" d="M 0 0 C 2.90083054 1.45041527 2.97494308 3.2893829 4 6.3125 C 5.70188905 12.58897399 5.70188905 12.58897399 9.890625 17.0546875 C 10.58671875 17.36664063 11.2828125 17.67859375 12 18 C 13.26788575 19.01982115 14.51633007 20.06404386 15.75 21.125 C 22.21988121 26.23113174 29.58320682 29.50674313 37 33 C 37.66531738 33.31549805 38.33063477 33.63099609 39.01611328 33.95605469 C 41.030292 34.91094659 43.04609658 35.86231563 45.0625 36.8125 C 45.75150391 37.13758545 46.44050781 37.4626709 47.15039062 37.79760742 C 51.28232089 39.74108634 55.42862722 41.64733145 59.58984375 43.52734375 C 80.69502885 53.17723302 100.53520109 64.08488666 109.08203125 86.88671875 C 111.88989523 96.40955958 111.75857516 107.47165621 109 117 C 108.01 117.99 107.02 118.98 106 120 C 104.68 113.73 103.36 107.46 102 101 C 101.34 101 100.68 101 100 101 C 100.2165625 101.71542969 100.433125 102.43085938 100.65625 103.16796875 C 103.9745086 115.04303309 104.47760673 127.28083177 100 139 C 99.01 139.33 98.02 139.66 97 140 C 96.79246094 138.99582031 96.58492188 137.99164063 96.37109375 136.95703125 C 93.42968449 123.59176686 88.61310358 111.13343469 77.6875 102.25 C 76.800625 101.5075 75.91375 100.765 75 100 C 75 99.34 75 98.68 75 98 C 74.18595703 97.62875 74.18595703 97.62875 73.35546875 97.25 C 70.48413742 95.72624208 67.95474522 93.89456764 65.3125 92 C 55.149926 84.84991374 44.36534161 78.7164046 33.375 72.9375 C -2.8834427 53.86424906 -2.8834427 53.86424906 -9 39 C -9.51170699 36.14072201 -9.51783783 33.39734481 -9.4375 30.5 C -9.44458984 29.77941406 -9.45167969 29.05882812 -9.45898438 28.31640625 C -9.39885218 23.20054422 -8.27118102 19.57850816 -6 15 C -5.01 15.33 -4.02 15.66 -3 16 C -3.18175781 15.43410156 -3.36351562 14.86820313 -3.55078125 14.28515625 C -4.06254391 11.68184183 -3.79225225 10.00878476 -3.1875 7.4375 C -2.93033203 6.29087891 -2.93033203 6.29087891 -2.66796875 5.12109375 C -2 3 -2 3 0 0 Z" stroke-linecap="round"/>
</g>
		<g transform="matrix(1 0 0 1 0.5668 -93)">
<path style="stroke: none; stroke-width: 1; stroke-dasharray: none; stroke-linecap: butt; stroke-dashoffset: 0; stroke-linejoin: miter; stroke-miterlimit: 4; is-custom-font: none; font-file-url: none; fill: rgb(184,184,184); fill-rule: nonzero; opacity: 1;" transform=" translate(36.4332, -42)" d="M 0 0 C 0.99 0.495 0.99 0.495 2 1 C 4.03392559 7.10177678 4.06509054 13.89416347 1.9765625 19.984375 C -10.14243463 43.68672298 -44.14284171 58.89008322 -68 68 C -68 68.66 -68 69.32 -68 70 C -64.18467386 68.2770224 -60.37328937 66.54548594 -56.5625 64.8125 C -55.49322266 64.32974609 -54.42394531 63.84699219 -53.32226562 63.34960938 C -47.04784349 60.49062192 -40.95973242 57.46797807 -35 54 C -34.12730469 53.49855469 -33.25460938 52.99710938 -32.35546875 52.48046875 C -8.6763099 38.69218976 -8.6763099 38.69218976 4.6484375 15.6484375 C 4.82246094 14.83246094 4.82246094 14.83246094 5 14 C 5.99 14.33 6.98 14.66 8 15 C 10.94056556 22.93952701 10.55765256 31.06843305 7.25 38.875 C 1.21208515 49.81653935 -9.33969465 57.94549324 -20 64 C -21.2677941 64.77118492 -22.53326225 65.54620148 -23.796875 66.32421875 C -31.38746215 70.95822646 -39.1118914 75.2014963 -47.125 79.0625 C -48.29675781 79.63556885 -48.29675781 79.63556885 -49.4921875 80.22021484 C -53.96471341 82.3224948 -57.97474359 83.95876108 -63 84 C -66.16796875 82.5234375 -66.16796875 82.5234375 -69.1875 80.375 C -70.69376953 79.33472656 -70.69376953 79.33472656 -72.23046875 78.2734375 C -76.52065265 74.75173506 -79.2345868 71.13461177 -81.3125 66 C -81.83263672 64.7625 -81.83263672 64.7625 -82.36328125 63.5 C -83.128477 60.49555043 -82.99144394 58.93420399 -82 56 C -79.8828125 54.6003418 -79.8828125 54.6003418 -77.125 53.51171875 C -75.62646484 52.89176025 -75.62646484 52.89176025 -74.09765625 52.25927734 C -73.07542969 51.84371582 -72.05320313 51.4281543 -71 51 C -69.18127916 50.16577468 -67.36855858 49.31832665 -65.5625 48.45703125 C -64.20511719 47.81399048 -64.20511719 47.81399048 -62.8203125 47.15795898 C -26.49611301 31.86154032 -26.49611301 31.86154032 -1 4 C -0.63298178 2.67554294 -0.28817735 1.34381647 0 0 Z" stroke-linecap="round"/>
</g>
		<g transform="matrix(1 0 0 1 5.4545 -12)">
<path style="stroke: none; stroke-width: 1; stroke-dasharray: none; stroke-linecap: butt; stroke-dashoffset: 0; stroke-linejoin: miter; stroke-miterlimit: 4; is-custom-font: none; font-file-url: none; fill: rgb(129,88,210); fill-rule: nonzero; opacity: 1;" transform=" translate(-55.4545, -57)" d="M 0 0 C 0.99 0 1.98 0 3 0 C 3 0.66 3 1.32 3 2 C 3.66 2 4.32 2 5 2 C 9 7.41176471 9 7.41176471 9 10 C 9.58265625 10.26554688 10.1653125 10.53109375 10.765625 10.8046875 C 13.06611001 12.03536654 14.77511875 13.42660213 16.75 15.125 C 23.21988121 20.23113174 30.58320682 23.50674313 38 27 C 38.66531738 27.31549805 39.33063477 27.63099609 40.01611328 27.95605469 C 42.030292 28.91094659 44.04609658 29.86231563 46.0625 30.8125 C 47.09600586 31.30012817 47.09600586 31.30012817 48.15039062 31.79760742 C 52.28232089 33.74108634 56.42862722 35.64733145 60.58984375 37.52734375 C 81.69502885 47.17723302 101.53520109 58.08488666 110.08203125 80.88671875 C 112.88989523 90.40955958 112.75857516 101.47165621 110 111 C 108.421875 112.86328125 108.421875 112.86328125 107 114 C 106.78085937 112.91203125 106.56171875 111.8240625 106.3359375 110.703125 C 102.50476563 92.57387897 95.5186358 79.57528309 79.78979492 69.04223633 C 75.30335687 66.12406356 70.74262063 63.47288786 66 61 C 64.64923078 60.28090285 63.29902556 59.56074581 61.94921875 58.83984375 C 49.86333211 52.29995831 49.86333211 52.29995831 37.42578125 46.48046875 C 22.60385743 40.07509916 7.3176577 30.31663595 0 15.375 C -1.52483104 10.22869523 -1.72596054 5.17788163 0 0 Z" stroke-linecap="round"/>
</g>
		<g transform="matrix(1 0 0 1 -2.7329 -99.5)">
<path style="stroke: none; stroke-width: 1; stroke-dasharray: none; stroke-linecap: butt; stroke-dashoffset: 0; stroke-linejoin: miter; stroke-miterlimit: 4; is-custom-font: none; font-file-url: none; fill: rgb(192,192,192); fill-rule: nonzero; opacity: 1;" transform=" translate(39.7329, -35.5)" d="M 0 0 C 0.99 0.495 0.99 0.495 2 1 C 4.03392559 7.10177678 4.06509054 13.89416347 1.9765625 19.984375 C -7.77821836 39.06278619 -28.90685652 48.51488714 -47 58 C -47.7847168 58.41233887 -48.56943359 58.82467773 -49.37792969 59.24951172 C -57.38525778 63.43025069 -65.38406877 67.21202957 -74 70 C -75.485 70.495 -75.485 70.495 -77 71 C -80.47985004 67.98412996 -81.98863008 65.50519326 -83 61 C -82.84765625 58.46411133 -82.84765625 58.46411133 -82 56 C -79.8828125 54.6003418 -79.8828125 54.6003418 -77.125 53.51171875 C -75.62646484 52.89176025 -75.62646484 52.89176025 -74.09765625 52.25927734 C -73.07542969 51.84371582 -72.05320313 51.4281543 -71 51 C -69.18127916 50.16577468 -67.36855858 49.31832665 -65.5625 48.45703125 C -64.20511719 47.81399048 -64.20511719 47.81399048 -62.8203125 47.15795898 C -26.49611301 31.86154032 -26.49611301 31.86154032 -1 4 C -0.63298178 2.67554294 -0.28817735 1.34381647 0 0 Z" stroke-linecap="round"/>
</g>
		<g transform="matrix(1 0 0 1 -33.5 40.5)">
<path style="stroke: none; stroke-width: 1; stroke-dasharray: none; stroke-linecap: butt; stroke-dashoffset: 0; stroke-linejoin: miter; stroke-miterlimit: 4; is-custom-font: none; font-file-url: none; fill: rgb(148,57,192); fill-rule: nonzero; opacity: 1;" transform=" translate(-17.5, -19.5)" d="M 0 0 C 4.72630369 0.16297599 7.41398594 2.71448988 10.75 5.75 C 16.70793515 11.00865523 22.92632204 15.81856879 29.35058594 20.49511719 C 33.09559238 23.28335741 36.10018503 25.58944918 38 30 C 37.76576872 33.90385466 37.18666686 35.71999971 35 39 C 31.23669943 38.42493385 29.51143654 36.8677296 26.8125 34.25 C 20.83052523 28.68765629 14.37216257 23.83266387 7.85546875 18.91796875 C -1.97027856 11.5010529 -1.97027856 11.5010529 -3 8 C -2.56521739 2.56521739 -2.56521739 2.56521739 0 0 Z" stroke-linecap="round"/>
</g>
		<g transform="matrix(1 0 0 1 -1.5 -24)">
<path style="stroke: none; stroke-width: 1; stroke-dasharray: none; stroke-linecap: butt; stroke-dashoffset: 0; stroke-linejoin: miter; stroke-miterlimit: 4; is-custom-font: none; font-file-url: none; fill: rgb(65,25,81); fill-rule: nonzero; opacity: 1;" transform=" translate(-47.5, -51)" d="M 0 0 C 0.66 0.33 1.32 0.66 2 1 C 2.40729228 3.32156597 2.74438677 5.6568787 3 8 C 2.67 7.34 2.34 6.68 2 6 C 1.01 6 0.02 6 -1 6 C -1.85085308 17.00436654 0.50469361 23.93461802 7.375 32.5 C 16.26631268 42.01556044 29.18361864 49.13189796 41.06835938 54.16772461 C 89.66821222 75.10767637 89.66821222 75.10767637 100 96 C 100.65234375 98.765625 100.65234375 98.765625 101 101 C 100.01 101.495 100.01 101.495 99 102 C 98.57589844 101.28714844 98.15179688 100.57429688 97.71484375 99.83984375 C 92.82833582 91.8603374 88.16982945 85.7038412 80 81 C 80 80.34 80 79.68 80 79 C 79.2678125 78.72542969 78.535625 78.45085937 77.78125 78.16796875 C 75.15862266 77.06661261 72.90789954 75.81743721 70.5 74.3125 C 60.78634466 68.40108789 50.74131967 63.3020294 40.41015625 58.578125 C 37.24051888 57.11130542 34.11503435 55.57891817 31 54 C 31 53.34 31 52.68 31 52 C 30.27941406 51.89429688 29.55882812 51.78859375 28.81640625 51.6796875 C 25.73519974 50.93609536 23.62305589 49.79361433 20.9375 48.125 C 20.10089844 47.61195313 19.26429688 47.09890625 18.40234375 46.5703125 C 14.01123001 43.70002352 14.01123001 43.70002352 12 42 C 12 41.34 12 40.68 12 40 C 11.319375 39.835 10.63875 39.67 9.9375 39.5 C 2.90842535 35.91068529 -0.90236439 28.98803104 -4 22 C -4.36480469 21.32453125 -4.72960937 20.6490625 -5.10546875 19.953125 C -6 18 -6 18 -6 15 C -5.01 15.33 -4.02 15.66 -3 16 C -3.18175781 15.43410156 -3.36351562 14.86820313 -3.55078125 14.28515625 C -4.06254391 11.68184183 -3.79225225 10.00878476 -3.1875 7.4375 C -3.01605469 6.67308594 -2.84460938 5.90867188 -2.66796875 5.12109375 C -2 3 -2 3 0 0 Z" stroke-linecap="round"/>
</g>
		<g transform="matrix(1 0 0 1 -33.2377 -28.5)">
<path style="stroke: none; stroke-width: 1; stroke-dasharray: none; stroke-linecap: butt; stroke-dashoffset: 0; stroke-linejoin: miter; stroke-miterlimit: 4; is-custom-font: none; font-file-url: none; fill: rgb(166,63,164); fill-rule: nonzero; opacity: 1;" transform=" translate(-21.7623, -29.5)" d="M 0 0 C 2.93216597 1.46608299 2.97801316 3.73623897 4.0234375 6.671875 C 6.64903414 12.93129738 10.45754816 18.07972919 16 22 C 16.680625 22.65355469 16.680625 22.65355469 17.375 23.3203125 C 23.0397962 28.73019288 29.98431421 31.71109321 37 35 C 37 35.66 37 36.32 37 37 C 38.32 37.66 39.64 38.32 41 39 C 37.8125 39.3125 37.8125 39.3125 34 39 C 31.4375 36.625 31.4375 36.625 29 34 C 25.83298577 32.66436389 25.83298577 32.66436389 23 32 C 23 31.34 23 30.68 23 30 C 21.68 29.67 20.36 29.34 19 29 C 19 28.34 19 27.68 19 27 C 18.01 27 17.02 27 16 27 C 15.67 26.34 15.34 25.68 15 25 C 14.01 25 13.02 25 12 25 C 11.34 23.35 10.68 21.7 10 20 C 9.34 20 8.68 20 8 20 C 7.67 18.68 7.34 17.36 7 16 C 6.34 16 5.68 16 5 16 C 4.67 15.34 4.34 14.68 4 14 C 3.34 17.3 2.68 20.6 2 24 C 2.99 24.33 3.98 24.66 5 25 C 5.66666667 26.33333333 6.33333333 27.66666667 7 29 C 9.63446711 31.42285473 9.63446711 31.42285473 13 32 C 13 33.65 13 35.3 13 37 C 13.54914063 37.10699219 14.09828125 37.21398437 14.6640625 37.32421875 C 20.65945718 39.0586724 26.36716591 42.80463348 31.5 46.3125 C 33.95993343 48.13589869 33.95993343 48.13589869 37 49 C 37 49.66 37 50.32 37 51 C 37.5775 51.268125 38.155 51.53625 38.75 51.8125 C 41.03484837 53.01839219 42.95345004 54.43097836 45 56 C 45.99 56.495 45.99 56.495 47 57 C 47 57.66 47 58.32 47 59 C 40.74817986 57.06273581 35.42359975 54.08784928 29.75 50.875 C 28.27080078 50.05902344 28.27080078 50.05902344 26.76171875 49.2265625 C 15.66671009 42.97008858 2.05190849 34.31212716 -3 22 C -3.51132172 19.09944234 -3.51795678 16.31297034 -3.4375 13.375 C -3.44458984 12.63765625 -3.45167969 11.9003125 -3.45898438 11.140625 C -3.40598683 6.59098986 -2.72571695 3.65838932 0 0 Z" stroke-linecap="round"/>
</g>
		<g transform="matrix(1 0 0 1 -24 48)">
<path style="stroke: none; stroke-width: 1; stroke-dasharray: none; stroke-linecap: butt; stroke-dashoffset: 0; stroke-linejoin: miter; stroke-miterlimit: 4; is-custom-font: none; font-file-url: none; fill: rgb(86,98,220); fill-rule: nonzero; opacity: 1;" transform=" translate(-6, -12)" d="M 0 0 C 3.68929826 2.36493478 7.24575427 4.86756985 10.75 7.5 C 11.50796875 8.0671875 12.2659375 8.634375 13.046875 9.21875 C 15.08140516 11.07424151 16.06195385 12.42547117 17 15 C 16.68533358 18.85466368 16.16750011 20.74874983 14 24 C 9.94673396 23.4558115 7.91726253 21.37327476 5 18.625 C 1.4937229 15.33401611 1.4937229 15.33401611 -2.265625 12.34765625 C -4.37413415 10.70928765 -4.64188727 9.59631727 -5 7 C -3.35 6.67 -1.7 6.34 0 6 C 0 4.02 0 2.04 0 0 Z" stroke-linecap="round"/>
</g>
		<g transform="matrix(1 0 0 1 -26.6381 -52)">
<path style="stroke: none; stroke-width: 1; stroke-dasharray: none; stroke-linecap: butt; stroke-dashoffset: 0; stroke-linejoin: miter; stroke-miterlimit: 4; is-custom-font: none; font-file-url: none; fill: rgb(168,65,170); fill-rule: nonzero; opacity: 1;" transform=" translate(-23.3619, -17)" d="M 0 0 C 0.99 0 1.98 0 3 0 C 3 0.66 3 1.32 3 2 C 3.66 2 4.32 2 5 2 C 9 7.41176471 9 7.41176471 9 10 C 9.58265625 10.26554688 10.1653125 10.53109375 10.765625 10.8046875 C 13.06611001 12.03536654 14.77511875 13.42660213 16.75 15.125 C 22.66345926 19.81667015 29.32314134 22.86229292 36.10107422 26.09082031 C 38.75131521 27.35971945 41.37567148 28.67850313 44 30 C 44.78375 30.391875 45.5675 30.78375 46.375 31.1875 C 46.91125 31.455625 47.4475 31.72375 48 32 C 46 33 46 33 43.8203125 32.43359375 C 37.52060657 30.10544156 31.57404435 27.39646807 25.62890625 24.26953125 C 23.14221044 22.94676547 23.14221044 22.94676547 20.83984375 22.51171875 C 18.51191916 21.86424928 17.64451523 20.73897825 16 19 C 14.70523066 18.19974215 13.39138185 17.42973535 12.0625 16.6875 C 8.12122368 14.30676587 6.22972732 11.99492812 4 8 C 2.4823847 12.355753 3.84691622 14.74344716 5.75390625 18.7421875 C 8.06667168 22.93271547 10.30547553 26.43515851 15 28 C 15.33 28.66 15.66 29.32 16 30 C 16.99 30.33 17.98 30.66 19 31 C 18.67 31.99 18.34 32.98 18 34 C 9.399787 30.1584063 3.00089585 22.95826663 -0.421875 14.16796875 C -1.68122897 9.44539136 -1.5544619 4.66338571 0 0 Z" stroke-linecap="round"/>
</g>
		<g transform="matrix(1 0 0 1 42.6511 35.5)">
<path style="stroke: none; stroke-width: 1; stroke-dasharray: none; stroke-linecap: butt; stroke-dashoffset: 0; stroke-linejoin: miter; stroke-miterlimit: 4; is-custom-font: none; font-file-url: none; fill: rgb(72,105,187); fill-rule: nonzero; opacity: 1;" transform=" translate(-11.6511, -29.5)" d="M 0 0 C 9.58079033 3.23288531 15.60957684 12.30552266 20 21 C 24.96007948 31.94394762 23.52169911 44.13682297 20.94921875 55.515625 C 20.63597656 56.33546875 20.32273437 57.1553125 20 58 C 18.515 58.495 18.515 58.495 17 59 C 16.75765625 57.9378125 16.5153125 56.875625 16.265625 55.78125 C 14.51258032 48.32309814 12.66033013 41.77838912 9 35 C 9.33 34.34 9.66 33.68 10 33 C 10.66 33 11.32 33 12 33 C 12.33 34.65 12.66 36.3 13 38 C 13.99 38.33 14.98 38.66 16 39 C 16 41.97 16 44.94 16 48 C 17.32 48 18.64 48 20 48 C 19.85856168 45.2705414 19.71200471 42.54151877 19.5625 39.8125 C 19.52318359 39.04357422 19.48386719 38.27464844 19.44335938 37.48242188 C 19.22447886 33.55940954 18.86164195 29.84480567 18 26 C 18 25.34 18 24.68 18 24 C 17.34 24 16.68 24 16 24 C 15.855625 23.21625 15.71125 22.4325 15.5625 21.625 C 14.74090833 17.79090554 14.38248701 17.25499134 11 15 C 11.33 14.34 11.66 13.68 12 13 C 11.4946875 12.59007812 10.989375 12.18015625 10.46875 11.7578125 C 9.8190625 11.21898437 9.169375 10.68015625 8.5 10.125 C 7.8503125 9.59132813 7.200625 9.05765625 6.53125 8.5078125 C 6.0259375 8.01023437 5.520625 7.51265625 5 7 C 5 6.34 5 5.68 5 5 C 4.01 4.67 3.02 4.34 2 4 C 0.8125 1.9375 0.8125 1.9375 0 0 Z" stroke-linecap="round"/>
</g>
		<g transform="matrix(1 0 0 1 55.4893 20)">
<path style="stroke: none; stroke-width: 1; stroke-dasharray: none; stroke-linecap: butt; stroke-dashoffset: 0; stroke-linejoin: miter; stroke-miterlimit: 4; is-custom-font: none; font-file-url: none; fill: rgb(83,120,195); fill-rule: nonzero; opacity: 1;" transform=" translate(-6.4893, -25)" d="M 0 0 C 6.94569217 4.36586365 9.78213557 12.40549454 12 20 C 13.35988076 28.95985955 13.53929512 38.22906737 11 47 C 9.421875 48.86328125 9.421875 48.86328125 8 50 C 6.18225815 42.90215087 4.56769509 36.34918342 5 29 C 5.99 29.33 6.98 29.66 8 30 C 8 26.04 8 22.08 8 18 C 7.34 18 6.68 18 6 18 C 5.90203125 17.40832031 5.8040625 16.81664062 5.703125 16.20703125 C 4.71934505 11.00826306 3.49686775 8.07967904 0 4 C 0 2.68 0 1.36 0 0 Z" stroke-linecap="round"/>
</g>
		<g transform="matrix(1 0 0 1 30.4587 8.5)">
<path style="stroke: none; stroke-width: 1; stroke-dasharray: none; stroke-linecap: butt; stroke-dashoffset: 0; stroke-linejoin: miter; stroke-miterlimit: 4; is-custom-font: none; font-file-url: none; fill: rgb(34,38,84); fill-rule: nonzero; opacity: 1;" transform=" translate(-19.4587, -18.5)" d="M 0 0 C 13.69742304 1.31883972 27.45092487 14.74481363 36.1953125 24.578125 C 41.2207591 31.32223083 41.2207591 31.32223083 40.6875 35.375 C 40.460625 35.91125 40.23375 36.4475 40 37 C 38.17053782 34.74835423 36.35518013 32.50229616 34.6796875 30.1328125 C 30.76515285 24.63535127 26.142652 19.071326 20 16 C 20 15.34 20 14.68 20 14 C 19.27554687 13.72929687 18.55109375 13.45859375 17.8046875 13.1796875 C 15.05830894 12.02452549 12.6583745 10.68711271 10.125 9.125 C 6.11959378 6.67858423 2.08576192 4.3093437 -2 2 C -1.34 1.34 -0.68 0.68 0 0 Z" stroke-linecap="round"/>
</g>
		<g transform="matrix(1 0 0 1 -43.5 -53.5)">
<path style="stroke: none; stroke-width: 1; stroke-dasharray: none; stroke-linecap: butt; stroke-dashoffset: 0; stroke-linejoin: miter; stroke-miterlimit: 4; is-custom-font: none; font-file-url: none; fill: rgb(75,18,76); fill-rule: nonzero; opacity: 1;" transform=" translate(-5.5, -21.5)" d="M 0 0 C 0.66 0.33 1.32 0.66 2 1 C 2.40729228 3.32156597 2.74438677 5.6568787 3 8 C 2.67 7.34 2.34 6.68 2 6 C 1.01 6 0.02 6 -1 6 C -1.77592849 16.03534183 -0.24151958 22.6114547 6.0078125 30.55078125 C 8.84001999 33.82715412 11.38503637 36.59002425 15 39 C 15 39.99 15 40.98 15 42 C 15.66 42.33 16.32 42.66 17 43 C 15.35 42.67 13.7 42.34 12 42 C 12 41.34 12 40.68 12 40 C 11.319375 39.835 10.63875 39.67 9.9375 39.5 C 2.90842535 35.91068529 -0.90236439 28.98803104 -4 22 C -4.36480469 21.32453125 -4.72960937 20.6490625 -5.10546875 19.953125 C -6 18 -6 18 -6 15 C -5.01 15.33 -4.02 15.66 -3 16 C -3.18175781 15.43410156 -3.36351562 14.86820313 -3.55078125 14.28515625 C -4.06254391 11.68184183 -3.79225225 10.00878476 -3.1875 7.4375 C -3.01605469 6.67308594 -2.84460938 5.90867188 -2.66796875 5.12109375 C -2 3 -2 3 0 0 Z" stroke-linecap="round"/>
</g>
		<g transform="matrix(1 0 0 1 -25 -9.0646)">
<path style="stroke: none; stroke-width: 1; stroke-dasharray: none; stroke-linecap: butt; stroke-dashoffset: 0; stroke-linejoin: miter; stroke-miterlimit: 4; is-custom-font: none; font-file-url: none; fill: rgb(114,61,142); fill-rule: nonzero; opacity: 1;" transform=" translate(-17, -9.9354)" d="M 0 0 C 7.270649 -0.93213449 12.61575999 3.35320079 18.375 7.25 C 20.93970226 9.12607709 20.93970226 9.12607709 24 10 C 24 10.66 24 11.32 24 12 C 24.5775 12.268125 25.155 12.53625 25.75 12.8125 C 28.03484837 14.01839219 29.95345004 15.43097836 32 17 C 32.66 17.33 33.32 17.66 34 18 C 34 18.66 34 19.32 34 20 C 27.63430138 18.03507623 22.209923 14.96059825 16.4375 11.6875 C 15.40947266 11.11837891 14.38144531 10.54925781 13.32226562 9.96289062 C 8.22882193 7.08771923 3.82323811 4.45905014 0 0 Z" stroke-linecap="round"/>
</g>
		<g transform="matrix(1 0 0 1 -14.5 -26.1316)">
<path style="stroke: none; stroke-width: 1; stroke-dasharray: none; stroke-linecap: butt; stroke-dashoffset: 0; stroke-linejoin: miter; stroke-miterlimit: 4; is-custom-font: none; font-file-url: none; fill: rgb(141,74,173); fill-rule: nonzero; opacity: 1;" transform=" translate(-20.5, -10.8684)" d="M 0 0 C 3.65998839 1.38325058 7.02135191 3.03317915 10.4375 4.9375 C 11.40558594 5.46730469 12.37367188 5.99710938 13.37109375 6.54296875 C 15.25986463 7.58979124 17.13469896 8.66190773 19 9.75 C 22.80512244 11.33546768 26.52913273 11.79239692 30.609375 12.27734375 C 33 13 33 13 34.1953125 15.01953125 C 34.59363281 15.99986328 34.59363281 15.99986328 35 17 C 37.05000871 17.80528889 37.05000871 17.80528889 39 18 C 39 18.66 39 19.32 39 20 C 39.66 20.33 40.32 20.66 41 21 C 38 22 38 22 35.328125 20.890625 C 34.31234375 20.34921875 33.2965625 19.8078125 32.25 19.25 C 29.04641253 17.55784867 25.89183638 15.9541347 22.5546875 14.5390625 C 18.84796672 12.9341746 15.38047293 11.12042305 11.875 9.125 C 11.28074219 8.79886719 10.68648437 8.47273437 10.07421875 8.13671875 C 6.04083383 5.84846285 3.11139015 3.36969424 0 0 Z" stroke-linecap="round"/>
</g>
		<g transform="matrix(1 0 0 1 47.0738 51.5)">
<path style="stroke: none; stroke-width: 1; stroke-dasharray: none; stroke-linecap: butt; stroke-dashoffset: 0; stroke-linejoin: miter; stroke-miterlimit: 4; is-custom-font: none; font-file-url: none; fill: rgb(50,70,114); fill-rule: nonzero; opacity: 1;" transform=" translate(5.9262, -13.5)" d="M 0 0 C 0.33 0 0.66 0 1 0 C 1.39060505 8.83924759 1.19794056 17.63008149 -2 26 C -2.99 26.33 -3.98 26.66 -5 27 C -5.24234375 25.9378125 -5.4846875 24.875625 -5.734375 23.78125 C -7.48741968 16.32309814 -9.33966987 9.77838912 -13 3 C -12.67 2.34 -12.34 1.68 -12 1 C -11.34 1 -10.68 1 -10 1 C -9.67 2.65 -9.34 4.3 -9 6 C -8.01 6.33 -7.02 6.66 -6 7 C -6 9.97 -6 12.94 -6 16 C -4.68 16 -3.36 16 -2 16 C -1.34 10.72 -0.68 5.44 0 0 Z" stroke-linecap="round"/>
</g>
		<g transform="matrix(1 0 0 1 -44 33.5)">
<path style="stroke: none; stroke-width: 1; stroke-dasharray: none; stroke-linecap: butt; stroke-dashoffset: 0; stroke-linejoin: miter; stroke-miterlimit: 4; is-custom-font: none; font-file-url: none; fill: rgb(86,49,136); fill-rule: nonzero; opacity: 1;" transform=" translate(-7, -12.5)" d="M 0 0 C 4.94781498 0.1374393 7.5008288 2.8263331 11 6 C 9.68 6.33 8.36 6.66 7 7 C 6.38125 6.0409375 6.38125 6.0409375 5.75 5.0625 C 3.82189513 2.79009069 2.88575819 2.39803561 0 2 C 0.33 4.64 0.66 7.28 1 10 C 1.66 10 2.32 10 3 10 C 4.625 11.375 4.625 11.375 6 13 C 6 13.66 6 14.32 6 15 C 8.475 15.99 8.475 15.99 11 17 C 11 17.66 11 18.32 11 19 C 11.66 19 12.32 19 13 19 C 13 19.66 13 20.32 13 21 C 13.99 21 14.98 21 16 21 C 16.33 22.32 16.66 23.64 17 25 C 12.24890952 21.93369338 7.58361891 18.77317866 3.0625 15.375 C 2.33160156 14.82585937 1.60070312 14.27671875 0.84765625 13.7109375 C -1.12026687 11.88863237 -2.07685596 10.50779237 -3 8 C -2.56521739 2.56521739 -2.56521739 2.56521739 0 0 Z" stroke-linecap="round"/>
</g>
		<g transform="matrix(1 0 0 1 -21.0659 -47.5)">
<path style="stroke: none; stroke-width: 1; stroke-dasharray: none; stroke-linecap: butt; stroke-dashoffset: 0; stroke-linejoin: miter; stroke-miterlimit: 4; is-custom-font: none; font-file-url: none; fill: rgb(138,59,151); fill-rule: nonzero; opacity: 1;" transform=" translate(-18.9341, -11.5)" d="M 0 0 C 0.42667969 0.3403125 0.85335937 0.680625 1.29296875 1.03125 C 10.8120907 8.4110229 20.75187309 14.21745093 31.8828125 18.74194336 C 36.90312451 20.80624903 36.90312451 20.80624903 38 23 C 33.06351753 21.39107238 28.14633416 19.72733634 23.25 18 C 22.36828125 17.690625 21.4865625 17.38125 20.578125 17.0625 C 17.8653211 15.94449597 15.50079776 14.5259105 13 13 C 12.29875 12.835 11.5975 12.67 10.875 12.5 C 8.48380045 11.86234679 7.71167558 10.77750926 6 9 C 4.948125 8.38125 3.89625 7.7625 2.8125 7.125 C 1.884375 6.42375 0.95625 5.7225 0 5 C -0.17578125 2.3671875 -0.17578125 2.3671875 0 0 Z" stroke-linecap="round"/>
</g>
		<g transform="matrix(1 0 0 1 41.5469 11.5)">
<path style="stroke: none; stroke-width: 1; stroke-dasharray: none; stroke-linecap: butt; stroke-dashoffset: 0; stroke-linejoin: miter; stroke-miterlimit: 4; is-custom-font: none; font-file-url: none; fill: rgb(78,112,195); fill-rule: nonzero; opacity: 1;" transform=" translate(-12.5469, -16.5)" d="M 0 0 C 1.485 0.99 1.485 0.99 3 2 C 3 2.66 3 3.32 3 4 C 4.32 4.33 5.64 4.66 7 5 C 7 5.66 7 6.32 7 7 C 7.5775 7.268125 8.155 7.53625 8.75 7.8125 C 11.05550043 9.02929189 13.02056192 10.30333879 15 12 C 15 12.66 15 13.32 15 14 C 15.66 14 16.32 14 17 14 C 17.680625 15.2065625 17.680625 15.2065625 18.375 16.4375 C 19.73420995 19.15236193 19.73420995 19.15236193 22.1875 19.8125 C 23.0846875 19.9053125 23.0846875 19.9053125 24 20 C 23.67 20.99 23.34 21.98 23 23 C 23.6590841 24.66967972 24.32650839 26.33607955 25 28 C 25.125 30.8125 25.125 30.8125 25 33 C 22.86076254 30.86076254 22.14980746 29.24615883 20.9375 26.5 C 16.70396441 17.88350991 10.32099975 11.74141054 2.53125 6.31640625 C 1 5 1 5 0 2.125 C 0 1.42375 0 0.7225 0 0 Z" stroke-linecap="round"/>
</g>
		<g transform="matrix(1 0 0 1 -31 -30.3828)">
<path style="stroke: none; stroke-width: 1; stroke-dasharray: none; stroke-linecap: butt; stroke-dashoffset: 0; stroke-linejoin: miter; stroke-miterlimit: 4; is-custom-font: none; font-file-url: none; fill: rgb(153,70,171); fill-rule: nonzero; opacity: 1;" transform=" translate(-17, -11.6172)" d="M 0 0 C 4.0054554 1.7802024 7.24602983 4.29062229 10.3828125 7.34765625 C 16.0816384 12.71715301 22.98242925 15.71020955 30 19 C 30 19.66 30 20.32 30 21 C 31.32 21.66 32.64 22.32 34 23 C 30.8125 23.3125 30.8125 23.3125 27 23 C 24.4375 20.625 24.4375 20.625 22 18 C 18.83298577 16.66436389 18.83298577 16.66436389 16 16 C 16 15.34 16 14.68 16 14 C 14.68 13.67 13.36 13.34 12 13 C 12 12.34 12 11.68 12 11 C 11.01 11 10.02 11 9 11 C 8.67 10.34 8.34 9.68 8 9 C 7.01 9 6.02 9 5 9 C 4.34 7.35 3.68 5.7 3 4 C 2.34 4 1.68 4 1 4 C 0.67 2.68 0.34 1.36 0 0 Z" stroke-linecap="round"/>
</g>
		<g transform="matrix(1 0 0 1 0 -15)">
<path style="stroke: none; stroke-width: 1; stroke-dasharray: none; stroke-linecap: butt; stroke-dashoffset: 0; stroke-linejoin: miter; stroke-miterlimit: 4; is-custom-font: none; font-file-url: none; fill: rgb(50,31,80); fill-rule: nonzero; opacity: 1;" transform=" translate(-12, -6)" d="M 0 0 C 6.03105563 1.29042857 11.05006145 3.2688285 16.5 6.125 C 17.22703125 6.49753906 17.9540625 6.87007812 18.703125 7.25390625 C 20.47255118 8.16190126 22.2368367 9.07990265 24 10 C 23.67 10.66 23.34 11.32 23 12 C 16.25 11.25 16.25 11.25 14 9 C 11.67690547 7.95232992 9.3576776 6.96193246 7 6 C 5.68644893 5.43995885 4.37389454 4.87757244 3.0625 4.3125 C 2.051875 3.879375 1.04125 3.44625 0 3 C 0 2.01 0 1.02 0 0 Z" stroke-linecap="round"/>
</g>
		<g transform="matrix(1 0 0 1 31.5 29.3697)">
<path style="stroke: none; stroke-width: 1; stroke-dasharray: none; stroke-linecap: butt; stroke-dashoffset: 0; stroke-linejoin: miter; stroke-miterlimit: 4; is-custom-font: none; font-file-url: none; fill: rgb(69,91,164); fill-rule: nonzero; opacity: 1;" transform=" translate(-9.5, -9.3698)" d="M 0 0 C 2.78164578 -0.50575378 4.4601248 -0.3649371 6.8203125 1.23046875 C 9.70600042 3.67545538 11.88680165 5.83020247 14 9 C 14.680625 9.639375 15.36125 10.27875 16.0625 10.9375 C 18.05036724 13.05361674 18.80816596 14.12248937 19 17 C 18.34 17.66 17.68 18.32 17 19 C 16.56429688 18.40832031 16.12859375 17.81664062 15.6796875 17.20703125 C 11.55326676 11.72753579 11.55326676 11.72753579 6.5625 7.0625 C 5.716875 6.381875 4.87125 5.70125 4 5 C 4 4.34 4 3.68 4 3 C 2.68 2.34 1.36 1.68 0 1 C 0 0.67 0 0.34 0 0 Z" stroke-linecap="round"/>
</g>
		<g transform="matrix(1 0 0 1 -34.5 37)">
<path style="stroke: none; stroke-width: 1; stroke-dasharray: none; stroke-linecap: butt; stroke-dashoffset: 0; stroke-linejoin: miter; stroke-miterlimit: 4; is-custom-font: none; font-file-url: none; fill: rgb(114,56,200); fill-rule: nonzero; opacity: 1;" transform=" translate(-2.5, -7)" d="M 0 0 C 2.56165861 1.4513836 4.8825934 2.94367243 7 5 C 7.9375 8.8125 7.9375 8.8125 8 12 C 6.3125 13.125 6.3125 13.125 4 14 C 1.25 13.125 1.25 13.125 -1 12 C -1 11.34 -1 10.68 -1 10 C -1.66 10 -2.32 10 -3 10 C -3 9.34 -3 8.68 -3 8 C -1.02 7.34 0.96 6.68 3 6 C 2.2575 5.071875 2.2575 5.071875 1.5 4.125 C 0 2 0 2 0 0 Z" stroke-linecap="round"/>
</g>
		<g transform="matrix(1 0 0 1 17.5 -8)">
<path style="stroke: none; stroke-width: 1; stroke-dasharray: none; stroke-linecap: butt; stroke-dashoffset: 0; stroke-linejoin: miter; stroke-miterlimit: 4; is-custom-font: none; font-file-url: none; fill: rgb(106,99,191); fill-rule: nonzero; opacity: 1;" transform=" translate(-12.5, -7)" d="M 0 0 C 2.31 0.33 4.62 0.66 7 1 C 7.33 1.99 7.66 2.98 8 4 C 8.680625 4.12375 9.36125 4.2475 10.0625 4.375 C 16.52724485 5.75047763 20.6498623 6.72710581 25 12 C 25 12.66 25 13.32 25 14 C 20.93206524 12.55653928 17.30256061 10.55646342 13.55859375 8.44140625 C 10.69890447 6.83037519 7.82024588 5.25687131 4.9375 3.6875 C 3.99777344 3.17574219 3.05804688 2.66398438 2.08984375 2.13671875 C 1.40019531 1.76160156 0.71054688 1.38648438 0 1 C 0 0.67 0 0.34 0 0 Z" stroke-linecap="round"/>
</g>
		<g transform="matrix(1 0 0 1 -46.0353 28)">
<path style="stroke: none; stroke-width: 1; stroke-dasharray: none; stroke-linecap: butt; stroke-dashoffset: 0; stroke-linejoin: miter; stroke-miterlimit: 4; is-custom-font: none; font-file-url: none; fill: rgb(179,54,192); fill-rule: nonzero; opacity: 1;" transform=" translate(-4.9646, -5)" d="M 0 0 C 2.1875 0.0625 2.1875 0.0625 5 1 C 6.93157957 3.1717219 8.48201687 5.52601047 10 8 C 5.25 10 5.25 10 3 10 C 3 9.34 3 8.68 3 8 C 2.34 8 1.68 8 1 8 C -0.35439668 5.29120665 -0.06501451 2.99066732 0 0 Z" stroke-linecap="round"/>
</g>
		<g transform="matrix(1 0 0 1 -19.9803 51.9757)">
<path style="stroke: none; stroke-width: 1; stroke-dasharray: none; stroke-linecap: butt; stroke-dashoffset: 0; stroke-linejoin: miter; stroke-miterlimit: 4; is-custom-font: none; font-file-url: none; fill: rgb(73,116,220); fill-rule: nonzero; opacity: 1;" transform=" translate(2.9803, -3.9758)" d="M 0 0 C 1.35439668 2.70879335 1.06501451 5.00933268 1 8 C -5.875 7.125 -5.875 7.125 -7 6 C -7.04063832 4.33382885 -7.042721 2.66611905 -7 1 C -4.53721199 -0.231394 -2.7204945 -0.07159196 0 0 Z" stroke-linecap="round"/>
</g>
		<g transform="matrix(1 0 0 1 -54.5507 -43)">
<path style="stroke: none; stroke-width: 1; stroke-dasharray: none; stroke-linecap: butt; stroke-dashoffset: 0; stroke-linejoin: miter; stroke-miterlimit: 4; is-custom-font: none; font-file-url: none; fill: rgb(196,51,191); fill-rule: nonzero; opacity: 1;" transform=" translate(-0.4493, -9)" d="M 0 0 C 0.66 0.33 1.32 0.66 2 1 C 3.43377278 6.69768835 2.93672227 12.2755861 2 18 C 0.23537317 14.91190305 0 13.76687864 0 10 C -0.66 10 -1.32 10 -2 10 C -2 7.36 -2 4.72 -2 2 C -1.34 2 -0.68 2 0 2 C 0 1.34 0 0.68 0 0 Z" stroke-linecap="round"/>
</g>
		<g transform="matrix(1 0 0 1 12.5 13.5)">
<path style="stroke: none; stroke-width: 1; stroke-dasharray: none; stroke-linecap: butt; stroke-dashoffset: 0; stroke-linejoin: miter; stroke-miterlimit: 4; is-custom-font: none; font-file-url: none; fill: rgb(83,77,154); fill-rule: nonzero; opacity: 1;" transform=" translate(-9.5, -6.5)" d="M 0 0 C 1.98 0 3.96 0 6 0 C 5.67 0.66 5.34 1.32 5 2 C 6.5778125 2.3403125 6.5778125 2.3403125 8.1875 2.6875 C 13.01621733 4.06573713 15.84737221 6.96917961 18.3125 11.3125 C 18.6528125 12.1478125 18.6528125 12.1478125 19 13 C 14.83254947 10.99155549 11.08988143 8.50346992 7.25 5.9375 C 6.55261719 5.47794922 5.85523438 5.01839844 5.13671875 4.54492188 C 3.40546579 3.3913179 1.70014226 2.19898092 0 1 C 0 0.67 0 0.34 0 0 Z" stroke-linecap="round"/>
</g>
		<g transform="matrix(1 0 0 1 -27.5 42.5)">
<path style="stroke: none; stroke-width: 1; stroke-dasharray: none; stroke-linecap: butt; stroke-dashoffset: 0; stroke-linejoin: miter; stroke-miterlimit: 4; is-custom-font: none; font-file-url: none; fill: rgb(87,62,175); fill-rule: nonzero; opacity: 1;" transform=" translate(-2.5, -6.5)" d="M 0 0 C 3.74281699 2.38179263 6.97727468 4.74475735 10 8 C 9.0925 7.7525 8.185 7.505 7.25 7.25 C 3.93540324 6.63222468 3.93540324 6.63222468 1.625 8.8125 C -0.19877467 10.81340984 -0.19877467 10.81340984 0 13 C -1.9375 12.25 -1.9375 12.25 -4 11 C -4.75 8.875 -4.75 8.875 -5 7 C -3.35 6.67 -1.7 6.34 0 6 C 0 4.02 0 2.04 0 0 Z" stroke-linecap="round"/>
</g>
		<g transform="matrix(1 0 0 1 59.1282 28.5)">
<path style="stroke: none; stroke-width: 1; stroke-dasharray: none; stroke-linecap: butt; stroke-dashoffset: 0; stroke-linejoin: miter; stroke-miterlimit: 4; is-custom-font: none; font-file-url: none; fill: rgb(38,55,107); fill-rule: nonzero; opacity: 1;" transform=" translate(-0.1282, -16.5)" d="M 0 0 C 5.0224864 7.53372961 3.07143006 18.81508246 1.765625 27.35546875 C 0.96638171 30.11612033 0.21485561 31.22933246 -2 33 C -2.33 30.69 -2.66 28.38 -3 26 C -2.67 26.66 -2.34 27.32 -2 28 C -1.34 28 -0.68 28 0 28 C 0 18.76 0 9.52 0 0 Z" stroke-linecap="round"/>
</g>
		<g transform="matrix(1 0 0 1 -45.5 -26.5)">
<path style="stroke: none; stroke-width: 1; stroke-dasharray: none; stroke-linecap: butt; stroke-dashoffset: 0; stroke-linejoin: miter; stroke-miterlimit: 4; is-custom-font: none; font-file-url: none; fill: rgb(177,64,179); fill-rule: nonzero; opacity: 1;" transform=" translate(-7.5, -7.5)" d="M 0 0 C 3.65524228 1.21841409 3.38107832 1.76215663 5 5 C 7.63446711 7.42285473 7.63446711 7.42285473 11 8 C 11 9.65 11 11.3 11 13 C 12.32 13.33 13.64 13.66 15 14 C 13.359375 14.82421875 13.359375 14.82421875 11 15 C 8.84518012 13.32971364 7.11197322 11.764884 5.25 9.8125 C 4.74339844 9.31685547 4.23679688 8.82121094 3.71484375 8.31054688 C 0.72126711 5.25645318 0 4.44315505 0 0 Z" stroke-linecap="round"/>
</g>
		<g transform="matrix(1 0 0 1 21.5 0)">
<path style="stroke: none; stroke-width: 1; stroke-dasharray: none; stroke-linecap: butt; stroke-dashoffset: 0; stroke-linejoin: miter; stroke-miterlimit: 4; is-custom-font: none; font-file-url: none; fill: rgb(102,99,190); fill-rule: nonzero; opacity: 1;" transform=" translate(-9.5, -6)" d="M 0 0 C 4.72172641 1.37776819 8.72562072 3.40898488 12.875 6 C 13.46796875 6.35578125 14.0609375 6.7115625 14.671875 7.078125 C 16.15294043 7.99269997 17.58212216 8.99023537 19 10 C 19 10.66 19 11.32 19 12 C 15.20696275 10.99806563 12.28463659 10.18975773 9 8 C 9 7.34 9 6.68 9 6 C 8.01 6.33 7.02 6.66 6 7 C 5.38125 6.360625 4.7625 5.72125 4.125 5.0625 C 2.17402388 2.96116416 2.17402388 2.96116416 0 2 C 0 1.34 0 0.68 0 0 Z" stroke-linecap="round"/>
</g>
		<g transform="matrix(1 0 0 1 -14 -42)">
<path style="stroke: none; stroke-width: 1; stroke-dasharray: none; stroke-linecap: butt; stroke-dashoffset: 0; stroke-linejoin: miter; stroke-miterlimit: 4; is-custom-font: none; font-file-url: none; fill: rgb(108,56,130); fill-rule: nonzero; opacity: 1;" transform=" translate(-12, -6)" d="M 0 0 C 4.80462564 1.87497586 9.52676627 3.93077379 14.25 6 C 15.07757813 6.35578125 15.90515625 6.7115625 16.7578125 7.078125 C 17.54414063 7.42359375 18.33046875 7.7690625 19.140625 8.125 C 19.85766602 8.43695313 20.57470703 8.74890625 21.31347656 9.0703125 C 23 10 23 10 24 12 C 20.99311027 11.01997668 17.99506876 10.01556929 15 9 C 14.0409375 8.67515625 13.081875 8.3503125 12.09375 8.015625 C 11.1346875 7.68046875 10.175625 7.3453125 9.1875 7 C 8.29417969 6.690625 7.40085938 6.38125 6.48046875 6.0625 C 3.95097983 4.97900239 2.04873471 3.83383247 0 2 C 0 1.34 0 0.68 0 0 Z" stroke-linecap="round"/>
</g>
		<g transform="matrix(1 0 0 1 8 -31.5)">
<path style="stroke: none; stroke-width: 1; stroke-dasharray: none; stroke-linecap: butt; stroke-dashoffset: 0; stroke-linejoin: miter; stroke-miterlimit: 4; is-custom-font: none; font-file-url: none; fill: rgb(95,71,146); fill-rule: nonzero; opacity: 1;" transform=" translate(-10, -4.5)" d="M 0 0 C 4.71370756 0.64985095 8.57686444 2.51561392 12.8125 4.5625 C 13.50537109 4.89185547 14.19824219 5.22121094 14.91210938 5.56054688 C 16.61044948 6.36872251 18.30555769 7.18368377 20 8 C 20 8.33 20 8.66 20 9 C 17.69 9 15.38 9 13 9 C 12.67 8.01 12.34 7.02 12 6 C 10.68 6 9.36 6 8 6 C 8 5.34 8 4.68 8 4 C 5.69 3.67 3.38 3.34 1 3 C 0.67 2.01 0.34 1.02 0 0 Z" stroke-linecap="round"/>
</g>
		<g transform="matrix(1 0 0 1 -34 -14.046)">
<path style="stroke: none; stroke-width: 1; stroke-dasharray: none; stroke-linecap: butt; stroke-dashoffset: 0; stroke-linejoin: miter; stroke-miterlimit: 4; is-custom-font: none; font-file-url: none; fill: rgb(102,45,114); fill-rule: nonzero; opacity: 1;" transform=" translate(-8, -4.954)" d="M 0 0 C 4.60625394 -0.32136655 7.33513904 0.08966924 11 3 C 11 3.99 11 4.98 11 6 C 13.44496043 7.71711243 13.44496043 7.71711243 16 9 C 15.01 9.495 15.01 9.495 14 10 C 11.7578125 8.92578125 11.7578125 8.92578125 9.125 7.3125 C 8.26132813 6.79300781 7.39765625 6.27351562 6.5078125 5.73828125 C 4.03596277 4.02492746 2.05202 2.19041205 0 0 Z" stroke-linecap="round"/>
</g>
		<g transform="matrix(1 0 0 1 -18.1036 54)">
<path style="stroke: none; stroke-width: 1; stroke-dasharray: none; stroke-linecap: butt; stroke-dashoffset: 0; stroke-linejoin: miter; stroke-miterlimit: 4; is-custom-font: none; font-file-url: none; fill: rgb(48,85,131); fill-rule: nonzero; opacity: 1;" transform=" translate(1.1036, -6)" d="M 0 0 C 0.99 0.33 1.98 0.66 3 1 C 4.14947895 4.55293493 4.0868937 5.79976669 2.5625 9.3125 C 1.7890625 10.6428125 1.7890625 10.6428125 1 12 C -1.88575819 11.60196439 -2.82189513 11.20990931 -4.75 8.9375 C -5.1625 8.298125 -5.575 7.65875 -6 7 C -3.69 7.33 -1.38 7.66 1 8 C 0.67 5.36 0.34 2.72 0 0 Z" stroke-linecap="round"/>
</g>
		<g transform="matrix(1 0 0 1 -45 -62)">
<path style="stroke: none; stroke-width: 1; stroke-dasharray: none; stroke-linecap: butt; stroke-dashoffset: 0; stroke-linejoin: miter; stroke-miterlimit: 4; is-custom-font: none; font-file-url: none; fill: rgb(167,59,163); fill-rule: nonzero; opacity: 1;" transform=" translate(-5, -7)" d="M 0 0 C 0.99 0 1.98 0 3 0 C 3 0.66 3 1.32 3 2 C 3.66 2 4.32 2 5 2 C 6.2890625 3.609375 6.2890625 3.609375 7.625 5.75 C 8.07101563 6.44609375 8.51703125 7.1421875 8.9765625 7.859375 C 10 10 10 10 10 14 C 8.1875 13.5 8.1875 13.5 6 12 C 5.09712973 9.989836 4.43375414 7.98734319 3.80859375 5.875 C 3.04519963 3.63697497 3.04519963 3.63697497 0 2 C 0 1.34 0 0.68 0 0 Z" stroke-linecap="round"/>
</g>
		<g transform="matrix(1 0 0 1 -50 -30)">
<path style="stroke: none; stroke-width: 1; stroke-dasharray: none; stroke-linecap: butt; stroke-dashoffset: 0; stroke-linejoin: miter; stroke-miterlimit: 4; is-custom-font: none; font-file-url: none; fill: rgb(82,29,85); fill-rule: nonzero; opacity: 1;" transform=" translate(-8, -10)" d="M 0 0 C 2.14203172 2.51134754 3.87325299 4.70648061 5.1875 7.75 C 7.91948571 12.64873299 11.9445482 16.17410208 16 20 C 13 20 13 20 10.87890625 18.27734375 C 0 7.28836425 0 7.28836425 0 0 Z" stroke-linecap="round"/>
</g>
		<g transform="matrix(1 0 0 1 -35 -64.5)">
<path style="stroke: none; stroke-width: 1; stroke-dasharray: none; stroke-linecap: butt; stroke-dashoffset: 0; stroke-linejoin: miter; stroke-miterlimit: 4; is-custom-font: none; font-file-url: none; fill: rgb(58,58,57); fill-rule: nonzero; opacity: 1;" transform=" translate(5, -4.5)" d="M 0 0 C 0.66 0.33 1.32 0.66 2 1 C 1.01 1.33 0.02 1.66 -1 2 C -1 2.99 -1 3.98 -1 5 C -2.134375 5.28875 -3.26875 5.5775 -4.4375 5.875 C -5.613125 6.24625 -6.78875 6.6175 -8 7 C -8.33 7.66 -8.66 8.32 -9 9 C -9.99 7.35 -10.98 5.7 -12 4 C -11.319375 3.896875 -10.63875 3.79375 -9.9375 3.6875 C -7.47224296 3.11052495 -5.58783715 2.41746618 -3.3125 1.375 C -1.6728125 0.694375 -1.6728125 0.694375 0 0 Z" stroke-linecap="round"/>
</g>
		<g transform="matrix(1 0 0 1 54 3)">
<path style="stroke: none; stroke-width: 1; stroke-dasharray: none; stroke-linecap: butt; stroke-dashoffset: 0; stroke-linejoin: miter; stroke-miterlimit: 4; is-custom-font: none; font-file-url: none; fill: rgb(51,77,146); fill-rule: nonzero; opacity: 1;" transform=" translate(-5, -8)" d="M 0 0 C 5.30574727 3.33504114 7.89020661 8.23323139 10 14 C 9.67 14.66 9.34 15.32 9 16 C 8.34 14.35 7.68 12.7 7 11 C 6.34 11 5.68 11 5 11 C 2.25221116 7.41954788 0.53031138 4.5076467 0 0 Z" stroke-linecap="round"/>
</g>
		<g transform="matrix(1 0 0 1 37 7)">
<path style="stroke: none; stroke-width: 1; stroke-dasharray: none; stroke-linecap: butt; stroke-dashoffset: 0; stroke-linejoin: miter; stroke-miterlimit: 4; is-custom-font: none; font-file-url: none; fill: rgb(36,44,94); fill-rule: nonzero; opacity: 1;" transform=" translate(-4, -5)" d="M 0 0 C 1.29608947 0.93137592 2.58671632 1.8703566 3.875 2.8125 C 4.59429687 3.33457031 5.31359375 3.85664063 6.0546875 4.39453125 C 8 6 8 6 10 9 C 8.265625 9.68359375 8.265625 9.68359375 6 10 C 3.859375 8.78515625 3.859375 8.78515625 1.75 7.0625 C 1.04359375 6.49660156 0.3371875 5.93070312 -0.390625 5.34765625 C -0.92171875 4.90292969 -1.4528125 4.45820313 -2 4 C -1.34 2.68 -0.68 1.36 0 0 Z" stroke-linecap="round"/>
</g>
		<g transform="matrix(1 0 0 1 56.5 26.5)">
<path style="stroke: none; stroke-width: 1; stroke-dasharray: none; stroke-linecap: butt; stroke-dashoffset: 0; stroke-linejoin: miter; stroke-miterlimit: 4; is-custom-font: none; font-file-url: none; fill: rgb(72,120,219); fill-rule: nonzero; opacity: 1;" transform=" translate(1.5, -7.5)" d="M 0 0 C 0.33 0 0.66 0 1 0 C 1 4.95 1 9.9 1 15 C -3.03685532 10.96314468 -3.52112644 10.2676092 -4 5 C -3.01 5.33 -2.02 5.66 -1 6 C -0.67 4.02 -0.34 2.04 0 0 Z" stroke-linecap="round"/>
</g>
		<g transform="matrix(1 0 0 1 -14.5 -23)">
<path style="stroke: none; stroke-width: 1; stroke-dasharray: none; stroke-linecap: butt; stroke-dashoffset: 0; stroke-linejoin: miter; stroke-miterlimit: 4; is-custom-font: none; font-file-url: none; fill: rgb(65,32,88); fill-rule: nonzero; opacity: 1;" transform=" translate(-6.5, -4)" d="M 0 0 C 0.51949219 0.26554688 1.03898438 0.53109375 1.57421875 0.8046875 C 5.33020694 2.70698097 9.05225879 4.51959705 13 6 C 12.01 6.495 12.01 6.495 11 7 C 10.34 6.67 9.68 6.34 9 6 C 9 6.66 9 7.32 9 8 C 7.02 7.34 5.04 6.68 3 6 C 3 5.34 3 4.68 3 4 C 2.01 4 1.02 4 0 4 C 0 2.68 0 1.36 0 0 Z" stroke-linecap="round"/>
</g>
		<g transform="matrix(1 0 0 1 -47 26)">
<path style="stroke: none; stroke-width: 1; stroke-dasharray: none; stroke-linecap: butt; stroke-dashoffset: 0; stroke-linejoin: miter; stroke-miterlimit: 4; is-custom-font: none; font-file-url: none; fill: rgb(105,42,107); fill-rule: nonzero; opacity: 1;" transform=" translate(-4, -5)" d="M 0 0 C 4.94781498 0.1374393 7.5008288 2.8263331 11 6 C 9.68 6.33 8.36 6.66 7 7 C 6.38125 6.01 6.38125 6.01 5.75 5 C 5.1725 4.34 4.595 3.68 4 3 C 2.68 3 1.36 3 0 3 C -0.33 5.31 -0.66 7.62 -1 10 C -1.66 9.34 -2.32 8.68 -3 8 C -2.54545455 2.54545455 -2.54545455 2.54545455 0 0 Z" stroke-linecap="round"/>
</g>
		<g transform="matrix(1 0 0 1 -6.5 -15.1034)">
<path style="stroke: none; stroke-width: 1; stroke-dasharray: none; stroke-linecap: butt; stroke-dashoffset: 0; stroke-linejoin: miter; stroke-miterlimit: 4; is-custom-font: none; font-file-url: none; fill: rgb(126,84,178); fill-rule: nonzero; opacity: 1;" transform=" translate(-9.5, -3.8966)" d="M 0 0 C 5.76786903 0.47084645 9.07060673 1.987593 14 5 C 15.65172812 5.70286303 17.31301918 6.38655243 19 7 C 16.58480889 7.85242039 15.32929721 8.10298022 12.8515625 7.328125 C 12.11679688 6.97234375 11.38203125 6.6165625 10.625 6.25 C 9.84511719 5.87875 9.06523437 5.5075 8.26171875 5.125 C 7.51535156 4.75375 6.76898438 4.3825 6 4 C 4.824375 3.4225 3.64875 2.845 2.4375 2.25 C 1.633125 1.8375 0.82875 1.425 0 1 C 0 0.67 0 0.34 0 0 Z" stroke-linecap="round"/>
</g>
		<g transform="matrix(1 0 0 1 -23.5 45.7199)">
<path style="stroke: none; stroke-width: 1; stroke-dasharray: none; stroke-linecap: butt; stroke-dashoffset: 0; stroke-linejoin: miter; stroke-miterlimit: 4; is-custom-font: none; font-file-url: none; fill: rgb(84,78,196); fill-rule: nonzero; opacity: 1;" transform=" translate(4.5469, -1.8722)" d="M 0 0 C 2.35778381 1.39109245 2.97110595 2.63983755 3.953125 5.15234375 C 2.90125 4.63671875 1.849375 4.12109375 0.765625 3.58984375 C -2.58197187 2.14259985 -4.4993302 2.06837173 -8.046875 3.15234375 C -9.036875 3.15234375 -10.026875 3.15234375 -11.046875 3.15234375 C -11.706875 2.49234375 -12.366875 1.83234375 -13.046875 1.15234375 C -8.0938607 -2.27666615 -5.37486806 -1.83732735 0 0 Z" stroke-linecap="round"/>
</g>
		<g transform="matrix(1 0 0 1 51.0377 41.5)">
<path style="stroke: none; stroke-width: 1; stroke-dasharray: none; stroke-linecap: butt; stroke-dashoffset: 0; stroke-linejoin: miter; stroke-miterlimit: 4; is-custom-font: none; font-file-url: none; fill: rgb(78,121,209); fill-rule: nonzero; opacity: 1;" transform=" translate(-1.0377, -8.5)" d="M 0 0 C 0.66 0 1.32 0 2 0 C 3.14077657 3.42232972 3.09815117 6.08673217 3.0625 9.6875 C 3.05347656 10.86699219 3.04445313 12.04648437 3.03515625 13.26171875 C 3.02355469 14.16535156 3.01195312 15.06898438 3 16 C 2.34 16.33 1.68 16.66 1 17 C 0.90912109 15.62714844 0.90912109 15.62714844 0.81640625 14.2265625 C 0.69072266 12.44378906 0.69072266 12.44378906 0.5625 10.625 C 0.48128906 9.44164062 0.40007812 8.25828125 0.31640625 7.0390625 C 0.18915064 4.08481099 0.18915064 4.08481099 -1 2 C -0.67 1.34 -0.34 0.68 0 0 Z" stroke-linecap="round"/>
</g>
		<g transform="matrix(1 0 0 1 37 12)">
<path style="stroke: none; stroke-width: 1; stroke-dasharray: none; stroke-linecap: butt; stroke-dashoffset: 0; stroke-linejoin: miter; stroke-miterlimit: 4; is-custom-font: none; font-file-url: none; fill: rgb(87,108,195); fill-rule: nonzero; opacity: 1;" transform=" translate(-6, -6)" d="M 0 0 C 5.14024888 1.40188606 8.79582847 4.85396825 12 9 C 12 9.99 12 10.98 12 12 C 10 12 10 12 7.375 9.625 C 5 7 5 7 5 5 C 4.01 4.67 3.02 4.34 2 4 C 0.8125 1.9375 0.8125 1.9375 0 0 Z" stroke-linecap="round"/>
</g>
		<g transform="matrix(1 0 0 1 41.5 -11.5)">
<path style="stroke: none; stroke-width: 1; stroke-dasharray: none; stroke-linecap: butt; stroke-dashoffset: 0; stroke-linejoin: miter; stroke-miterlimit: 4; is-custom-font: none; font-file-url: none; fill: rgb(61,74,136); fill-rule: nonzero; opacity: 1;" transform=" translate(-7.5, -6.5)" d="M 0 0 C 5.7266425 2.9826263 10.26638344 6.62294157 15 11 C 14.67 11.66 14.34 12.32 14 13 C 8.125 9.25 8.125 9.25 7 7 C 6.38125 6.690625 5.7625 6.38125 5.125 6.0625 C 2.91490619 4.9574531 1.57590332 3.89108398 0 2 C 0 1.34 0 0.68 0 0 Z" stroke-linecap="round"/>
</g>
		<g transform="matrix(1 0 0 1 -22.5 -23.8828)">
<path style="stroke: none; stroke-width: 1; stroke-dasharray: none; stroke-linecap: butt; stroke-dashoffset: 0; stroke-linejoin: miter; stroke-miterlimit: 4; is-custom-font: none; font-file-url: none; fill: rgb(141,75,172); fill-rule: nonzero; opacity: 1;" transform=" translate(-8.5, -5.1172)" d="M 0 0 C 4.49797113 1.68673918 8.72886302 3.81673892 13 6 C 13 6.66 13 7.32 13 8 C 14.32 8.66 15.64 9.32 17 10 C 13.8125 10.3125 13.8125 10.3125 10 10 C 7.375 7.6875 7.375 7.6875 5 5 C 4.071875 4.443125 3.14375 3.88625 2.1875 3.3125 C 1.465625 2.879375 0.74375 2.44625 0 2 C 0 1.34 0 0.68 0 0 Z" stroke-linecap="round"/>
</g>
		<g transform="matrix(1 0 0 1 -47.5536 -59)">
<path style="stroke: none; stroke-width: 1; stroke-dasharray: none; stroke-linecap: butt; stroke-dashoffset: 0; stroke-linejoin: miter; stroke-miterlimit: 4; is-custom-font: none; font-file-url: none; fill: rgb(187,57,181); fill-rule: nonzero; opacity: 1;" transform=" translate(-2.4464, -8)" d="M 0 0 C 1.98 0.99 1.98 0.99 4 2 C 3.79375 3.216875 3.5875 4.43375 3.375 5.6875 C 2.90036156 9.34806773 3.23418616 11.67611512 5 15 C 4.01 15.495 4.01 15.495 3 16 C 0.1647887 10.4477112 -0.37952295 6.19887485 0 0 Z" stroke-linecap="round"/>
</g>
		<g transform="matrix(1 0 0 1 27 24.3828)">
<path style="stroke: none; stroke-width: 1; stroke-dasharray: none; stroke-linecap: butt; stroke-dashoffset: 0; stroke-linejoin: miter; stroke-miterlimit: 4; is-custom-font: none; font-file-url: none; fill: rgb(72,79,148); fill-rule: nonzero; opacity: 1;" transform=" translate(-5, -4.3828)" d="M 0 0 C 2.25 -0.3125 2.25 -0.3125 5 0 C 7.75615725 2.75615725 9.42444124 5.11497836 10 9 C 8 9 8 9 5.875 7.125 C 4 5 4 5 4 3 C 2.68 2.34 1.36 1.68 0 1 C 0 0.67 0 0.34 0 0 Z" stroke-linecap="round"/>
</g>
		<g transform="matrix(1 0 0 1 34 0.5)">
<path style="stroke: none; stroke-width: 1; stroke-dasharray: none; stroke-linecap: butt; stroke-dashoffset: 0; stroke-linejoin: miter; stroke-miterlimit: 4; is-custom-font: none; font-file-url: none; fill: rgb(97,103,196); fill-rule: nonzero; opacity: 1;" transform=" translate(-5, -5.5)" d="M 0 0 C 1.485 0.99 1.485 0.99 3 2 C 3 2.66 3 3.32 3 4 C 4.32 4.33 5.64 4.66 7 5 C 7 5.66 7 6.32 7 7 C 7.99 7.33 8.98 7.66 10 8 C 9.67 8.99 9.34 9.98 9 11 C 1.31509847 5.9059081 1.31509847 5.9059081 0 2.125 C 0 1.42375 0 0.7225 0 0 Z" stroke-linecap="round"/>
</g>
		<g transform="matrix(1 0 0 1 26 -22.6144)">
<path style="stroke: none; stroke-width: 1; stroke-dasharray: none; stroke-linecap: butt; stroke-dashoffset: 0; stroke-linejoin: miter; stroke-miterlimit: 4; is-custom-font: none; font-file-url: none; fill: rgb(68,64,126); fill-rule: nonzero; opacity: 1;" transform=" translate(-8, -4.3856)" d="M 0 0 C 5.96652354 1.57013777 10.82909025 4.75029782 16 8 C 13.3333581 9.33332095 11.83319697 8.67102033 9 8 C 9 7.34 9 6.68 9 6 C 7.02 5.34 5.04 4.68 3 4 C 3 3.34 3 2.68 3 2 C 2.01 2.33 1.02 2.66 0 3 C 0 2.01 0 1.02 0 0 Z" stroke-linecap="round"/>
</g>
		<g transform="matrix(1 0 0 1 -31 -70.0353)">
<path style="stroke: none; stroke-width: 1; stroke-dasharray: none; stroke-linecap: butt; stroke-dashoffset: 0; stroke-linejoin: miter; stroke-miterlimit: 4; is-custom-font: none; font-file-url: none; fill: rgb(238,240,239); fill-rule: nonzero; opacity: 1;" transform=" translate(4, -2.9646)" d="M 0 0 C -0.125 1.875 -0.125 1.875 -1 4 C -4.0625 5.25 -4.0625 5.25 -7 6 C -7.33 4.35 -7.66 2.7 -8 1 C -5.29120665 -0.35439668 -2.99066732 -0.06501451 0 0 Z" stroke-linecap="round"/>
</g>
		<g transform="matrix(1 0 0 1 -1 -18.2002)">
<path style="stroke: none; stroke-width: 1; stroke-dasharray: none; stroke-linecap: butt; stroke-dashoffset: 0; stroke-linejoin: miter; stroke-miterlimit: 4; is-custom-font: none; font-file-url: none; fill: rgb(124,83,176); fill-rule: nonzero; opacity: 1;" transform=" translate(-7, -2.7998)" d="M 0 0 C 8.57142857 1 8.57142857 1 12 2 C 12 2.66 12 3.32 12 4 C 12.66 4.33 13.32 4.66 14 5 C 10.08428299 6.305239 8.96107003 5.32239848 5.3125 3.5625 C 4.31863281 3.08941406 3.32476562 2.61632812 2.30078125 2.12890625 C 1.54152344 1.75636719 0.78226563 1.38382813 0 1 C 0 0.67 0 0.34 0 0 Z" stroke-linecap="round"/>
</g>
		<g transform="matrix(1 0 0 1 43.5 44)">
<path style="stroke: none; stroke-width: 1; stroke-dasharray: none; stroke-linecap: butt; stroke-dashoffset: 0; stroke-linejoin: miter; stroke-miterlimit: 4; is-custom-font: none; font-file-url: none; fill: rgb(61,89,155); fill-rule: nonzero; opacity: 1;" transform=" translate(-3.5, -5)" d="M 0 0 C 0.99 0 1.98 0 3 0 C 3.33 1.65 3.66 3.3 4 5 C 4.99 5.33 5.98 5.66 7 6 C 6.67 7.32 6.34 8.64 6 10 C 5.34 10 4.68 10 4 10 C 3.32845067 8.71086513 2.66291141 7.41859796 2 6.125 C 1.62875 5.40570313 1.2575 4.68640625 0.875 3.9453125 C 0 2 0 2 0 0 Z" stroke-linecap="round"/>
</g>
		<g transform="matrix(1 0 0 1 -38 35.507)">
<path style="stroke: none; stroke-width: 1; stroke-dasharray: none; stroke-linecap: butt; stroke-dashoffset: 0; stroke-linejoin: miter; stroke-miterlimit: 4; is-custom-font: none; font-file-url: none; fill: rgb(142,54,214); fill-rule: nonzero; opacity: 1;" transform=" translate(-1.4375, -2.5695)" d="M 0 0 C 1.2065625 0.0309375 1.2065625 0.0309375 2.4375 0.0625 C 2.4375 0.7225 2.4375 1.3825 2.4375 2.0625 C 3.7575 2.3925 5.0775 2.7225 6.4375 3.0625 C 3.20958445 5.2144437 2.15349191 5.26336443 -1.5625 5.0625 C -1.5625 4.0725 -1.5625 3.0825 -1.5625 2.0625 C -2.2225 1.7325 -2.8825 1.4025 -3.5625 1.0625 C -2.5625 0.0625 -2.5625 0.0625 0 0 Z" stroke-linecap="round"/>
</g>
		<g transform="matrix(1 0 0 1 -48.5839 30)">
<path style="stroke: none; stroke-width: 1; stroke-dasharray: none; stroke-linecap: butt; stroke-dashoffset: 0; stroke-linejoin: miter; stroke-miterlimit: 4; is-custom-font: none; font-file-url: none; fill: rgb(123,51,141); fill-rule: nonzero; opacity: 1;" transform=" translate(-3.4161, -6)" d="M 0 0 C 0.33 0 0.66 0 1 0 C 1.33 2.31 1.66 4.62 2 7 C 2.66 7 3.32 7 4 7 C 5.625 8.375 5.625 8.375 7 10 C 7 10.66 7 11.32 7 12 C 2.25 11.25 2.25 11.25 0 9 C -0.1953125 6.8359375 -0.1953125 6.8359375 -0.125 4.375 C -0.10695312 3.55773437 -0.08890625 2.74046875 -0.0703125 1.8984375 C -0.04710937 1.27195312 -0.02390625 0.64546875 0 0 Z" stroke-linecap="round"/>
</g>
		<g transform="matrix(1 0 0 1 51.6345 47.5)">
<path style="stroke: none; stroke-width: 1; stroke-dasharray: none; stroke-linecap: butt; stroke-dashoffset: 0; stroke-linejoin: miter; stroke-miterlimit: 4; is-custom-font: none; font-file-url: none; fill: rgb(52,82,147); fill-rule: nonzero; opacity: 1;" transform=" translate(1.3655, -9.5)" d="M 0 0 C 0.33 0 0.66 0 1 0 C 1.55353075 13.81776765 1.55353075 13.81776765 -2 19 C -2.66 19 -3.32 19 -4 19 C -4 18.01 -4 17.02 -4 16 C -3.34 16 -2.68 16 -2 16 C -1.34 10.72 -0.68 5.44 0 0 Z" stroke-linecap="round"/>
</g>
		<g transform="matrix(1 0 0 1 11.5 -11.5)">
<path style="stroke: none; stroke-width: 1; stroke-dasharray: none; stroke-linecap: butt; stroke-dashoffset: 0; stroke-linejoin: miter; stroke-miterlimit: 4; is-custom-font: none; font-file-url: none; fill: rgb(108,87,173); fill-rule: nonzero; opacity: 1;" transform=" translate(-6.5, -3.5)" d="M 0 0 C 2.31 0.33 4.62 0.66 7 1 C 7.33 1.99 7.66 2.98 8 4 C 9.65 4.33 11.3 4.66 13 5 C 13 5.66 13 6.32 13 7 C 8.1725201 5.58707905 4.2837641 3.57025846 0 1 C 0 0.67 0 0.34 0 0 Z" stroke-linecap="round"/>
</g>
		<g transform="matrix(1 0 0 1 -6 -22.5)">
<path style="stroke: none; stroke-width: 1; stroke-dasharray: none; stroke-linecap: butt; stroke-dashoffset: 0; stroke-linejoin: miter; stroke-miterlimit: 4; is-custom-font: none; font-file-url: none; fill: rgb(143,82,195); fill-rule: nonzero; opacity: 1;" transform=" translate(-5, -2.5)" d="M 0 0 C 2.97 0.33 5.94 0.66 9 1 C 9.33 2.32 9.66 3.64 10 5 C 6.7 4.34 3.4 3.68 0 3 C 0 2.01 0 1.02 0 0 Z" stroke-linecap="round"/>
</g>
		<g transform="matrix(1 0 0 1 -2.5 3.8708)">
<path style="stroke: none; stroke-width: 1; stroke-dasharray: none; stroke-linecap: butt; stroke-dashoffset: 0; stroke-linejoin: miter; stroke-miterlimit: 4; is-custom-font: none; font-file-url: none; fill: rgb(89,65,134); fill-rule: nonzero; opacity: 1;" transform=" translate(-5.5, -2.8709)" d="M 0 0 C 6.36363636 -0.48951049 6.36363636 -0.48951049 9.4375 1.875 C 11 4 11 4 11 6 C 6.49197399 4.74194623 3.5087188 3.09592835 0 0 Z" stroke-linecap="round"/>
</g>
		<g transform="matrix(1 0 0 1 -48.5547 -70)">
<path style="stroke: none; stroke-width: 1; stroke-dasharray: none; stroke-linecap: butt; stroke-dashoffset: 0; stroke-linejoin: miter; stroke-miterlimit: 4; is-custom-font: none; font-file-url: none; fill: rgb(113,51,108); fill-rule: nonzero; opacity: 1;" transform=" translate(-0.4453, -5)" d="M 0 0 C 0.66 0.33 1.32 0.66 2 1 C 2.40729228 3.32156597 2.74438677 5.6568787 3 8 C 2.67 7.34 2.34 6.68 2 6 C 1.01 6 0.02 6 -1 6 C -1.33 7.32 -1.66 8.64 -2 10 C -2.25 3.375 -2.25 3.375 0 0 Z" stroke-linecap="round"/>
</g>
		<g transform="matrix(1 0 0 1 8.5 10.5)">
<path style="stroke: none; stroke-width: 1; stroke-dasharray: none; stroke-linecap: butt; stroke-dashoffset: 0; stroke-linejoin: miter; stroke-miterlimit: 4; is-custom-font: none; font-file-url: none; fill: rgb(78,64,130); fill-rule: nonzero; opacity: 1;" transform=" translate(-5.5, -3.5)" d="M 0 0 C 1.98 0 3.96 0 6 0 C 5.67 0.66 5.34 1.32 5 2 C 6.65 2.33 8.3 2.66 10 3 C 10.33 4.32 10.66 5.64 11 7 C 6.89188572 5.55007731 3.53144334 3.54592427 0 1 C 0 0.67 0 0.34 0 0 Z" stroke-linecap="round"/>
</g>
		<g transform="matrix(1 0 0 1 -53 -62)">
<path style="stroke: none; stroke-width: 1; stroke-dasharray: none; stroke-linecap: butt; stroke-dashoffset: 0; stroke-linejoin: miter; stroke-miterlimit: 4; is-custom-font: none; font-file-url: none; fill: rgb(59,16,58); fill-rule: nonzero; opacity: 1;" transform=" translate(1, -7)" d="M 0 0 C 0.33 0 0.66 0 1 0 C 1 4.29 1 8.58 1 13 C 0.01 13.495 0.01 13.495 -1 14 C -1.66 13.34 -2.32 12.68 -3 12 C -3 11.01 -3 10.02 -3 9 C -2.01 9.33 -1.02 9.66 0 10 C -0.185625 9.46375 -0.37125 8.9275 -0.5625 8.375 C -1.11419324 5.38009386 -0.60597444 2.96254171 0 0 Z" stroke-linecap="round"/>
</g>
		<g transform="matrix(1 0 0 1 37 -107)">
<path style="stroke: none; stroke-width: 1; stroke-dasharray: none; stroke-linecap: butt; stroke-dashoffset: 0; stroke-linejoin: miter; stroke-miterlimit: 4; is-custom-font: none; font-file-url: none; fill: rgb(140,140,140); fill-rule: nonzero; opacity: 1;" transform=" translate(2, -5)" d="M 0 0 C 0.33 0 0.66 0 1 0 C 1.33 1.98 1.66 3.96 2 6 C 1.01 6.33 0.02 6.66 -1 7 C -2.66710346 8.49985609 -2.66710346 8.49985609 -4 10 C -4.66 9.67 -5.32 9.34 -6 9 C -5.02501855 7.4972763 -4.04490611 5.99788037 -3.0625 4.5 C -2.51722656 3.6646875 -1.97195313 2.829375 -1.41015625 1.96875 C -0.94480469 1.3190625 -0.47945313 0.669375 0 0 Z" stroke-linecap="round"/>
</g>
		<g transform="matrix(1 0 0 1 -42.5 -22.5)">
<path style="stroke: none; stroke-width: 1; stroke-dasharray: none; stroke-linecap: butt; stroke-dashoffset: 0; stroke-linejoin: miter; stroke-miterlimit: 4; is-custom-font: none; font-file-url: none; fill: rgb(163,66,175); fill-rule: nonzero; opacity: 1;" transform=" translate(0.5, -3.5)" d="M 0 0 C 0 1.65 0 3.3 0 5 C 1.32 5.33 2.64 5.66 4 6 C 2.68 6.33 1.36 6.66 0 7 C -1.65 5.02 -3.3 3.04 -5 1 C -2 0 -2 0 0 0 Z" stroke-linecap="round"/>
</g>
		<g transform="matrix(1 0 0 1 -44 -37.5)">
<path style="stroke: none; stroke-width: 1; stroke-dasharray: none; stroke-linecap: butt; stroke-dashoffset: 0; stroke-linejoin: miter; stroke-miterlimit: 4; is-custom-font: none; font-file-url: none; fill: rgb(171,66,181); fill-rule: nonzero; opacity: 1;" transform=" translate(-4, -4.5)" d="M 0 0 C 2.46800047 1.15173355 4.04783565 2.04783565 6 4 C 6 4.99 6 5.98 6 7 C 6.66 7.33 7.32 7.66 8 8 C 7.01 8.33 6.02 8.66 5 9 C 4.34 7.35 3.68 5.7 3 4 C 2.34 4 1.68 4 1 4 C 0.67 2.68 0.34 1.36 0 0 Z" stroke-linecap="round"/>
</g>
		<g transform="matrix(1 0 0 1 37.5 -13.1449)">
<path style="stroke: none; stroke-width: 1; stroke-dasharray: none; stroke-linecap: butt; stroke-dashoffset: 0; stroke-linejoin: miter; stroke-miterlimit: 4; is-custom-font: none; font-file-url: none; fill: rgb(95,108,211); fill-rule: nonzero; opacity: 1;" transform=" translate(-3.5, -2.8551)" d="M 0 0 C 3 1 3 1 4 3 C 6.01669827 4.13350534 6.01669827 4.13350534 8 5 C 4.52176885 6.15941038 2.54104422 5.70820884 -1 5 C -0.67 3.35 -0.34 1.7 0 0 Z" stroke-linecap="round"/>
</g>
		<g transform="matrix(1 0 0 1 -56.0359 -42)">
<path style="stroke: none; stroke-width: 1; stroke-dasharray: none; stroke-linecap: butt; stroke-dashoffset: 0; stroke-linejoin: miter; stroke-miterlimit: 4; is-custom-font: none; font-file-url: none; fill: rgb(170,61,165); fill-rule: nonzero; opacity: 1;" transform=" translate(-1.9641, -7)" d="M 0 0 C 0.33 0 0.66 0 1 0 C 1 2.31 1 4.62 1 7 C 1.66 7 2.32 7 3 7 C 3.33 9.31 3.66 11.62 4 14 C 1 12 1 12 0 9 C -0.06740865 7.43881572 -0.08514456 5.8749748 -0.0625 4.3125 C -0.05347656 3.50425781 -0.04445312 2.69601563 -0.03515625 1.86328125 C -0.02355469 1.24839844 -0.01195312 0.63351563 0 0 Z" stroke-linecap="round"/>
</g>
		<g transform="matrix(1 0 0 1 -55 -47)">
<path style="stroke: none; stroke-width: 1; stroke-dasharray: none; stroke-linecap: butt; stroke-dashoffset: 0; stroke-linejoin: miter; stroke-miterlimit: 4; is-custom-font: none; font-file-url: none; fill: rgb(190,55,183); fill-rule: nonzero; opacity: 1;" transform=" translate(0, -5)" d="M 0 0 C 0.66 0.33 1.32 0.66 2 1 C 1.46930939 4.82097239 0.50298434 7.06171403 -2 10 C -2 7.36 -2 4.72 -2 2 C -1.34 2 -0.68 2 0 2 C 0 1.34 0 0.68 0 0 Z" stroke-linecap="round"/>
</g>
		<g transform="matrix(1 0 0 1 33.5 27)">
<path style="stroke: none; stroke-width: 1; stroke-dasharray: none; stroke-linecap: butt; stroke-dashoffset: 0; stroke-linejoin: miter; stroke-miterlimit: 4; is-custom-font: none; font-file-url: none; fill: rgb(87,106,193); fill-rule: nonzero; opacity: 1;" transform=" translate(-3.5, -4)" d="M 0 0 C 3.26857065 2.28799945 5.19198857 4.38397715 7 8 C 5.35 7.67 3.7 7.34 2 7 C 1.34 4.69 0.68 2.38 0 0 Z" stroke-linecap="round"/>
</g>
		<g transform="matrix(1 0 0 1 56.5996 12.5)">
<path style="stroke: none; stroke-width: 1; stroke-dasharray: none; stroke-linecap: butt; stroke-dashoffset: 0; stroke-linejoin: miter; stroke-miterlimit: 4; is-custom-font: none; font-file-url: none; fill: rgb(76,121,214); fill-rule: nonzero; opacity: 1;" transform=" translate(-1.5996, -6.5)" d="M 0 0 C 2.04795423 1.9626228 2.94976638 3.4277307 3.19921875 6.26953125 C 3.18858877 8.51954383 3.12958525 10.75385562 3 13 C 2.67 13 2.34 13 2 13 C 2 11.02 2 9.04 2 7 C 1.34 7 0.68 7 0 7 C 0 4.69 0 2.38 0 0 Z" stroke-linecap="round"/>
</g>
		<g transform="matrix(1 0 0 1 -42 -41)">
<path style="stroke: none; stroke-width: 1; stroke-dasharray: none; stroke-linecap: butt; stroke-dashoffset: 0; stroke-linejoin: miter; stroke-miterlimit: 4; is-custom-font: none; font-file-url: none; fill: rgb(82,28,84); fill-rule: nonzero; opacity: 1;" transform=" translate(-3, -5)" d="M 0 0 C 4.875 4.75 4.875 4.75 6 7 C 5.01 8.485 5.01 8.485 4 10 C 1 6.25 1 6.25 1 4 C 0.68521554 2.66216607 0.35412344 1.32796291 0 0 Z" stroke-linecap="round"/>
</g>
		<g transform="matrix(1 0 0 1 -19.5 -54.3713)">
<path style="stroke: none; stroke-width: 1; stroke-dasharray: none; stroke-linecap: butt; stroke-dashoffset: 0; stroke-linejoin: miter; stroke-miterlimit: 4; is-custom-font: none; font-file-url: none; fill: rgb(229,228,229); fill-rule: nonzero; opacity: 1;" transform=" translate(4.5, -1.6287)" d="M 0 0 C -6.75 4 -6.75 4 -9 4 C -8.1875 2.0625 -8.1875 2.0625 -7 0 C -3.86650268 -1.04449911 -3.01031744 -0.93423645 0 0 Z" stroke-linecap="round"/>
</g>
		<g transform="matrix(1 0 0 1 -18 53)">
<path style="stroke: none; stroke-width: 1; stroke-dasharray: none; stroke-linecap: butt; stroke-dashoffset: 0; stroke-linejoin: miter; stroke-miterlimit: 4; is-custom-font: none; font-file-url: none; fill: rgb(63,130,223); fill-rule: nonzero; opacity: 1;" transform=" translate(0, -3)" d="M 0 0 C 0.66 0 1.32 0 2 0 C 2 1.98 2 3.96 2 6 C 0.68 6 -0.64 6 -2 6 C -1.125 1.125 -1.125 1.125 0 0 Z" stroke-linecap="round"/>
</g>
		<g transform="matrix(1 0 0 1 -30 -33.5)">
<path style="stroke: none; stroke-width: 1; stroke-dasharray: none; stroke-linecap: butt; stroke-dashoffset: 0; stroke-linejoin: miter; stroke-miterlimit: 4; is-custom-font: none; font-file-url: none; fill: rgb(150,70,169); fill-rule: nonzero; opacity: 1;" transform=" translate(-5, -3.5)" d="M 0 0 C 3.5875213 1.33250791 6.8364623 2.830717 10 5 C 10 5.66 10 6.32 10 7 C 5.56541027 5.6062718 3.12621626 3.39417765 0 0 Z" stroke-linecap="round"/>
</g>
		<g transform="matrix(1 0 0 1 43 40)">
<path style="stroke: none; stroke-width: 1; stroke-dasharray: none; stroke-linecap: butt; stroke-dashoffset: 0; stroke-linejoin: miter; stroke-miterlimit: 4; is-custom-font: none; font-file-url: none; fill: rgb(83,116,215); fill-rule: nonzero; opacity: 1;" transform=" translate(-1, -4)" d="M 0 0 C 0.66 0 1.32 0 2 0 C 2.66 1.98 3.32 3.96 4 6 C 3.34 6.66 2.68 7.32 2 8 C 1.566875 7.0409375 1.566875 7.0409375 1.125 6.0625 C 0.17176549 3.84793921 0.17176549 3.84793921 -2 3 C -1 1 -1 1 0 0 Z" stroke-linecap="round"/>
</g>
		<g transform="matrix(1 0 0 1 51.5 -1.5)">
<path style="stroke: none; stroke-width: 1; stroke-dasharray: none; stroke-linecap: butt; stroke-dashoffset: 0; stroke-linejoin: miter; stroke-miterlimit: 4; is-custom-font: none; font-file-url: none; fill: rgb(67,92,162); fill-rule: nonzero; opacity: 1;" transform=" translate(-2.5, -3.5)" d="M 0 0 C 2.5 1.8125 2.5 1.8125 5 4 C 5 4.99 5 5.98 5 7 C 3.0625 6.3125 3.0625 6.3125 1 5 C 0.25 2.375 0.25 2.375 0 0 Z" stroke-linecap="round"/>
</g>
		<g transform="matrix(1 0 0 1 -26.5 52)">
<path style="stroke: none; stroke-width: 1; stroke-dasharray: none; stroke-linecap: butt; stroke-dashoffset: 0; stroke-linejoin: miter; stroke-miterlimit: 4; is-custom-font: none; font-file-url: none; fill: rgb(53,73,144); fill-rule: nonzero; opacity: 1;" transform=" translate(-3.5, -3)" d="M 0 0 C 2.97 0.495 2.97 0.495 6 1 C 6.33 2.65 6.66 4.3 7 6 C 3.63279613 4.60667426 2.0140476 3.0210714 0 0 Z" stroke-linecap="round"/>
</g>
		<g transform="matrix(1 0 0 1 42.5 7.5)">
<path style="stroke: none; stroke-width: 1; stroke-dasharray: none; stroke-linecap: butt; stroke-dashoffset: 0; stroke-linejoin: miter; stroke-miterlimit: 4; is-custom-font: none; font-file-url: none; fill: rgb(91,112,206); fill-rule: nonzero; opacity: 1;" transform=" translate(-3.5, -3.5)" d="M 0 0 C 2.5 1.375 2.5 1.375 5 3 C 5 3.66 5 4.32 5 5 C 5.66 5 6.32 5 7 5 C 6.67 5.66 6.34 6.32 6 7 C 1.2 4.53846154 1.2 4.53846154 0.1875 1.8125 C 0.125625 1.214375 0.06375 0.61625 0 0 Z" stroke-linecap="round"/>
</g>
		<g transform="matrix(1 0 0 1 -20 -7.1853)">
<path style="stroke: none; stroke-width: 1; stroke-dasharray: none; stroke-linecap: butt; stroke-dashoffset: 0; stroke-linejoin: miter; stroke-miterlimit: 4; is-custom-font: none; font-file-url: none; fill: rgb(107,63,137); fill-rule: nonzero; opacity: 1;" transform=" translate(-6, -1.8147)" d="M 0 0 C 4.19469571 0.59924224 8.00999834 1.57499941 12 3 C 8.02337646 4.32554118 5.90112089 3.34765994 2 2 C 1.34 1.34 0.68 0.68 0 0 Z" stroke-linecap="round"/>
</g>
		<g transform="matrix(1 0 0 1 -55.5 -35.5)">
<path style="stroke: none; stroke-width: 1; stroke-dasharray: none; stroke-linecap: butt; stroke-dashoffset: 0; stroke-linejoin: miter; stroke-miterlimit: 4; is-custom-font: none; font-file-url: none; fill: rgb(105,35,102); fill-rule: nonzero; opacity: 1;" transform=" translate(-2.5, -4.5)" d="M 0 0 C 4.42857143 5.14285714 4.42857143 5.14285714 5 9 C 2 8 2 8 0.8125 6.1875 C 0 4 0 4 0 0 Z" stroke-linecap="round"/>
</g>
		<g transform="matrix(1 0 0 1 -55.5 -53.5)">
<path style="stroke: none; stroke-width: 1; stroke-dasharray: none; stroke-linecap: butt; stroke-dashoffset: 0; stroke-linejoin: miter; stroke-miterlimit: 4; is-custom-font: none; font-file-url: none; fill: rgb(119,54,116); fill-rule: nonzero; opacity: 1;" transform=" translate(0.5, -4.5)" d="M 0 0 C 0.66 0.33 1.32 0.66 2 1 C 2 1.99 2 2.98 2 4 C 1.01 4 0.02 4 -1 4 C -1.33 5.65 -1.66 7.3 -2 9 C -2.6875 7.3125 -2.6875 7.3125 -3 5 C -1.5625 2.25 -1.5625 2.25 0 0 Z" stroke-linecap="round"/>
</g>
		<g transform="matrix(1 0 0 1 56 33)">
<path style="stroke: none; stroke-width: 1; stroke-dasharray: none; stroke-linecap: butt; stroke-dashoffset: 0; stroke-linejoin: miter; stroke-miterlimit: 4; is-custom-font: none; font-file-url: none; fill: rgb(61,90,152); fill-rule: nonzero; opacity: 1;" transform=" translate(-2, -5)" d="M 0 0 C 2.0625 2.1875 2.0625 2.1875 4 5 C 3.75 7.8125 3.75 7.8125 3 10 C 0.70366176 6.55549263 0.45983515 4.06187717 0 0 Z" stroke-linecap="round"/>
</g>
		<g transform="matrix(1 0 0 1 -44.5 31)">
<path style="stroke: none; stroke-width: 1; stroke-dasharray: none; stroke-linecap: butt; stroke-dashoffset: 0; stroke-linejoin: miter; stroke-miterlimit: 4; is-custom-font: none; font-file-url: none; fill: rgb(165,53,203); fill-rule: nonzero; opacity: 1;" transform=" translate(-0.5, -2)" d="M 0 0 C 2.1875 0.3125 2.1875 0.3125 4 1 C 2.75 2.5625 2.75 2.5625 1 4 C -1.1875 3.6875 -1.1875 3.6875 -3 3 C -1.75 1.4375 -1.75 1.4375 0 0 Z" stroke-linecap="round"/>
</g>
		<g transform="matrix(1 0 0 1 -31 -32)">
<path style="stroke: none; stroke-width: 1; stroke-dasharray: none; stroke-linecap: butt; stroke-dashoffset: 0; stroke-linejoin: miter; stroke-miterlimit: 4; is-custom-font: none; font-file-url: none; fill: rgb(79,26,87); fill-rule: nonzero; opacity: 1;" transform=" translate(-3, -3)" d="M 0 0 C 1.98 0.99 3.96 1.98 6 3 C 5.01 3.495 5.01 3.495 4 4 C 4 4.66 4 5.32 4 6 C 2.68 5.34 1.36 4.68 0 4 C 0 2.68 0 1.36 0 0 Z" stroke-linecap="round"/>
</g>
</g>
</g>
</svg>